<svg id="Layer_2" data-name="Layer 2" xmlns="http://www.w3.org/2000/svg" viewBox="0 0 512 512"><defs><style>.cls-1{fill:#f1d2ad;}.cls-2{fill:#0095dd;}</style></defs><title>Artboard 9</title><rect class="cls-1" x="87.45" y="253.71" width="32.17" height="149.15"/><rect class="cls-1" x="232.01" y="253.71" width="32.2" height="149.15"/><rect class="cls-1" x="159.75" y="253.71" width="32.17" height="149.15"/><rect class="cls-1" x="312.19" y="253.71" width="32.17" height="149.15"/><rect class="cls-1" x="392.38" y="253.71" width="32.17" height="149.15"/><rect class="cls-2" x="49.17" y="402.85" width="413.66" height="66.53" rx="33.27"/><rect class="cls-2" x="49.18" y="195.44" width="413.64" height="58.25"/><polygon class="cls-2" points="0 195.44 256 42.62 512 195.44 0 195.44"/><circle class="cls-1" cx="256" cy="130.46" r="38.46"/><path class="cls-2" d="M273.12,141.45a16.53,16.53,0,0,1-4.22,11.46c-2.24,2.46-5.46,4-9.68,4.44v2.15a3.23,3.23,0,0,1-6.46,0v-2.12c-7.24-.91-11.8-5.19-13.74-12.87a4.42,4.42,0,0,1,3.75-5.48,4.3,4.3,0,0,1,4.62,2.91c1,3.23,2.85,5.28,5.37,6.16a9.77,9.77,0,0,0,3.23.52,10.75,10.75,0,0,0,3.23-.43,7.49,7.49,0,0,0,3-1.62,6.61,6.61,0,0,0,2.25-5.1,5.55,5.55,0,0,0-.79-3,5.78,5.78,0,0,0-2.39-2.07c-.43-.2-1.11-.48-2-.81-1.38-.5-3.3-1.13-5.73-1.88-.25-.06-.5-.15-.73-.22a24.48,24.48,0,0,1-7.4-3.43,13.52,13.52,0,0,1-4.08-5.15,15.75,15.75,0,0,1-1.54-6.88,15.24,15.24,0,0,1,2-7.72,12.6,12.6,0,0,1,5.37-5.16,16.27,16.27,0,0,1,5.23-1.56,3.58,3.58,0,0,1,.45,0v-2.1a3.23,3.23,0,0,1,6.46,0v2.23l.45.07a14.42,14.42,0,0,1,7.71,3.74,14.18,14.18,0,0,1,3.64,6.1,4.57,4.57,0,0,1-4.09,5.93h-.24a4.58,4.58,0,0,1-4.25-3,6.33,6.33,0,0,0-1.71-2.67,6,6,0,0,0-1.51-1,9.53,9.53,0,0,0-3.88-.72,12.69,12.69,0,0,0-2.58.25,6.93,6.93,0,0,0-2.82,1.22,4.38,4.38,0,0,0-1.89,3.63,4.58,4.58,0,0,0,1.71,3.61,11.84,11.84,0,0,0,3,1.6c1.29.5,2.94,1,4.9,1.61.54.15,1.06.31,1.56.47a29,29,0,0,1,7.89,3.52,13.39,13.39,0,0,1,4.45,5.39A18.75,18.75,0,0,1,273.12,141.45Z"/><rect class="cls-2" x="79.65" y="253.69" width="47.77" height="12.06"/><rect class="cls-2" x="151.94" y="253.69" width="47.77" height="12.06"/><rect class="cls-2" x="224.22" y="253.69" width="47.77" height="12.06"/><rect class="cls-2" x="304.39" y="253.69" width="47.77" height="12.06"/><rect class="cls-2" x="384.58" y="253.69" width="47.77" height="12.06"/><rect class="cls-1" x="49.17" y="201.49" width="413.66" height="2.96"/><rect class="cls-1" x="49.17" y="208.69" width="413.66" height="2.96"/><rect class="cls-1" x="49.17" y="215.89" width="413.66" height="2.96"/><rect class="cls-1" x="49.17" y="223.09" width="413.66" height="2.96"/><rect class="cls-1" x="49.17" y="230.29" width="413.66" height="2.96"/><rect class="cls-1" x="49.17" y="237.49" width="413.66" height="2.96"/><rect class="cls-1" x="49.17" y="244.69" width="413.66" height="2.96"/></svg>